<?xml version="1.0" encoding="UTF-8" standalone="no"?>
<!-- Created with Inkscape (http://www.inkscape.org/) -->

<svg
   width="640"
   height="480"
   viewBox="0 0 169.33332 127"
   version="1.1"
   id="svg5"
   xml:space="preserve"
   inkscape:version="1.2.2 (732a01da63, 2022-12-09)"
   sodipodi:docname="highscore_32bpp.svg"
   inkscape:export-filename="highscore_32bpp.png"
   inkscape:export-xdpi="384"
   inkscape:export-ydpi="384"
   xmlns:inkscape="http://www.inkscape.org/namespaces/inkscape"
   xmlns:sodipodi="http://sodipodi.sourceforge.net/DTD/sodipodi-0.dtd"
   xmlns:xlink="http://www.w3.org/1999/xlink"
   xmlns="http://www.w3.org/2000/svg"
   xmlns:svg="http://www.w3.org/2000/svg"><sodipodi:namedview
     id="namedview7"
     pagecolor="#ffffff"
     bordercolor="#666666"
     borderopacity="1.0"
     inkscape:showpageshadow="2"
     inkscape:pageopacity="0.0"
     inkscape:pagecheckerboard="0"
     inkscape:deskcolor="#d1d1d1"
     inkscape:document-units="px"
     showgrid="true"
     inkscape:zoom="3.6596239"
     inkscape:cx="399.35797"
     inkscape:cy="240.46187"
     inkscape:window-width="3840"
     inkscape:window-height="2066"
     inkscape:window-x="-11"
     inkscape:window-y="-11"
     inkscape:window-maximized="1"
     inkscape:current-layer="layer1"><inkscape:grid
       type="xygrid"
       id="grid182"
       empspacing="2"
       originx="0"
       originy="0" /></sodipodi:namedview><defs
     id="defs2"><linearGradient
       x1="136.3282"
       y1="151.16792"
       x2="117.66125"
       y2="78.463249"
       id="linearGradient3571"
       xlink:href="#linearGradient3421"
       gradientUnits="userSpaceOnUse"
       gradientTransform="matrix(0.33705643,0,0,0.33705643,42.547834,22.126153)" /><linearGradient
       id="linearGradient3421"><stop
         style="stop-color:#fe7600;stop-opacity:1"
         offset="0"
         id="stop3423" /><stop
         style="stop-color:#f2b26d;stop-opacity:1"
         offset="1"
         id="stop3425" /></linearGradient></defs><g
     inkscape:label="Layer 1"
     inkscape:groupmode="layer"
     id="layer1"><rect
       style="fill:#fcb030;fill-opacity:1;stroke:none;stroke-width:1.49675;stroke-linecap:square;stroke-linejoin:miter;stroke-dasharray:none;stroke-opacity:1;paint-order:stroke markers fill"
       id="rect11215"
       width="169.33333"
       height="127"
       x="0"
       y="0" /><path
       id="path12635"
       style="fill:none;stroke:#fcc464;stroke-width:16.93333267;stroke-linecap:butt;stroke-linejoin:miter;stroke-dasharray:none;stroke-opacity:1"
       d="m 135.46666,136.52499 40.21666,-40.216662 m -74.08333,38.100002 73.025,-73.025 m -122.766659,76.2 L 174.62499,14.816666 M 12.699999,135.46666 157.69166,-9.5249995 M -5.2916643,114.29999 118.53333,-9.5249996 M -6.3499997,62.441664 61.38333,-5.2916664 M -6.3499997,23.283332 22.224999,-5.2916664"
       sodipodi:nodetypes="cccccccccccccc" /><path
       id="path11495"
       style="fill:none;stroke:#fcd898;stroke-width:3.175;stroke-linecap:butt;stroke-linejoin:miter;stroke-dasharray:none;stroke-opacity:1"
       d="M 12.699999,133.34999 156.63333,-10.583333 M 19.049999,135.46666 162.98333,-8.4666662 M 84.666662,133.34999 177.79999,40.216665 m -23.28333,95.249995 21.16666,-21.16667 m -42.33333,16.93334 42.33333,-42.333334 M 107.94999,137.58333 175.68332,69.849996 M 51.858337,130.17499 174.62499,7.408333 M -6.3499997,129.11666 129.11666,-6.3499997 M -8.4666662,120.64999 118.53333,-6.3499997 M -6.3499997,107.94999 110.06666,-8.4666662 M -6.3499997,86.783329 88.899996,-8.4666662 M -6.3499997,57.149997 57.149997,-6.3499997 M -8.4666662,33.866665 29.633332,-4.2333331 M 32.808332,133.34999 171.44999,-5.2916664"
       sodipodi:nodetypes="cccccccccccccccccccccccccccc" /><path
       id="path11497"
       style="fill:none;fill-opacity:1;stroke:#ffffff;stroke-width:0.529167;stroke-linecap:butt;stroke-linejoin:miter;stroke-dasharray:none;stroke-opacity:1"
       d="M 34.925005,132.29166 174.62499,-7.408333 M 15.874996,134.40833 161.92499,-11.641666 M -5.2916666,125.94166 129.11666,-8.4666663 M -13.758333,99.483328 93.133329,-7.408333"
       sodipodi:nodetypes="cccccccc" /><path
       id="path11265"
       style="fill:#fcd898;fill-opacity:1;stroke:#fcd898;stroke-width:1.5875;stroke-linecap:butt;stroke-linejoin:miter;stroke-dasharray:none;stroke-opacity:1"
       d="m 141.81666,135.46666 33.86666,-33.86667 m -61.38333,33.86667 61.38333,-61.38333 m -52.91666,59.26666 52.91666,-52.916661 M 105.83333,135.46666 175.68332,65.616663 M 65.616663,137.58333 173.56666,29.633332 M 172.50833,5.2916664 38.099998,139.69999 M 8.4666662,133.34999 148.16666,-6.3499997 M 1.0583312,135.46666 140.75833,-4.2333332 M -8.4666662,40.216665 35.983332,-4.2333331 M -6.3499997,74.08333 76.199996,-8.4666662 M -8.4666662,103.71666 105.83333,-10.583333 M -8.4666662,99.483328 97.366662,-6.3499997"
       sodipodi:nodetypes="cccccccccccccccccccccccc" /><path
       id="path12480"
       style="fill:none;stroke:#fcfcc0;stroke-width:1.05833;stroke-linecap:butt;stroke-linejoin:miter;stroke-dasharray:none;stroke-opacity:1"
       d="M -6.3499997,53.974997 52.916664,-5.2916664 M -8.9958315,123.29582 119.59166,-5.2916665 M 11.641666,133.34999 153.45833,-8.4666662 M 53.974997,128.05833 169.33333,12.699999 M 138.64166,136.52499 177.79999,97.366662 m -41.275,35.983328 40.21667,-40.216661 m -71.96667,44.450001 71.96667,-71.966667"
       sodipodi:nodetypes="cccccccccccccc" /><path
       id="path360-0"
       style="fill:#c8c8c8;fill-opacity:1;fill-rule:evenodd;stroke:#505050;stroke-width:1.05833329;stroke-linecap:butt;stroke-linejoin:miter;stroke-dasharray:none;stroke-opacity:1"
       d="M 10.58334,6.3500066 6.35,10.583336 v 48.68333 l -4.23333,4.23334 4.23333,4.23333 v 48.683324 l 4.23334,4.23333 H 158.75 l 4.23333,-4.23333 V 67.733336 l 4.23333,-4.23333 -4.23333,-4.23334 V 10.583336 L 158.75,6.3500066 Z M 84.66667,23.283336 124.88333,63.500006 84.66667,103.71666 44.45,63.500006 Z" /><path
       id="rect11215-0"
       style="fill:#98845c;fill-opacity:1;stroke:none;stroke-width:1.05833329;stroke-linecap:square;stroke-linejoin:miter;stroke-dasharray:none;stroke-opacity:1;paint-order:stroke markers fill"
       d="m -2.1166666,-2.1166666 3.4e-6,131.2333266 H 171.45 l -10e-6,-131.2333266 z M 2.1166666,2.1166666 H 167.21666 V 59.266664 l -4.23333,4.233333 4.23333,4.233334 V 124.88333 H 2.1166666 V 67.733331 L 6.3499997,63.499997 2.1166666,59.266664 Z"
       sodipodi:nodetypes="cccccccccccccccc" /><path
       style="fill:none;fill-opacity:1;stroke:#505050;stroke-width:1.05833329;stroke-linecap:square;stroke-linejoin:miter;stroke-dasharray:none;stroke-opacity:1;paint-order:stroke markers fill"
       d="M 2.1166666,2.1166666 H 167.21666 V 59.266664 l -4.23333,4.233333 4.23333,4.233334 V 124.88333 H 2.1166666 V 67.733331 L 6.3499997,63.499997 2.1166666,59.266664 Z"
       id="path3453" /><path
       style="fill:#7cc84c;fill-opacity:1;fill-rule:evenodd;stroke:#848484;stroke-width:1.49675;stroke-linecap:butt;stroke-linejoin:miter;stroke-dasharray:none;stroke-opacity:1"
       d="M 50.799999,69.849999 43.920833,76.729162 71.4375,104.24583 78.316666,97.366665"
       id="path1758"
       sodipodi:nodetypes="cccc" /><path
       style="fill:#7cc84c;fill-opacity:1;fill-rule:evenodd;stroke:#848484;stroke-width:1.49675;stroke-linecap:butt;stroke-linejoin:miter;stroke-dasharray:none;stroke-opacity:1"
       d="m 91.016666,97.366665 6.879167,6.879165 27.516667,-27.516664 -6.87917,-6.879167"
       id="path1760"
       sodipodi:nodetypes="cccc" /><path
       style="fill:none;fill-opacity:1;fill-rule:evenodd;stroke:#848484;stroke-width:1.49675;stroke-linecap:butt;stroke-linejoin:miter;stroke-dasharray:none;stroke-opacity:1"
       d="M 84.666666,23.283333 124.88333,63.499999 84.666666,103.71667 44.449999,63.499999 Z"
       id="path476-5" /><g
       id="g1841"
       transform="matrix(-1,0,0,1,195.2625,1.5875)"
       style="stroke-width:1.49675;stroke-dasharray:none;stroke:#848484;stroke-opacity:1"><path
         id="path1855"
         style="fill:none;fill-rule:evenodd;stroke:#848484;stroke-width:1.49675;stroke-linecap:square;stroke-linejoin:miter;stroke-dasharray:none;stroke-opacity:1"
         d="m 80.433335,81.491666 1.5875,1.5875 3.175,-3.175 -1.5875,-1.5875 m -2.116667,0 -1.058335,1.058334 m 10.054167,12.170833 3.175,-3.175 m -7.9375,-1.5875 3.175,-3.175 m 1.5875,1.5875 -3.174999,-3.175001 M 95.25,89.958333 92.075001,86.783332 m 37.570829,5.820833 -3.175,-3.174999 -2.64583,2.645833 3.175,3.175 m 5.55625,-9.260416 -2.64584,2.645833 m -1.32291,-1.322917 2.64583,-2.645833 3.175,3.175 -2.64583,2.645834 m 7.40833,-7.408338 -3.175,-3.174996 -2.64583,2.645833 2.11667,2.116667 2.64583,-2.645834 m 2.64583,-6.879166 -2.64583,2.645833 3.175,3.174997 2.64583,-2.645834 z"
         sodipodi:nodetypes="cccccccccccccccccccccccccccccccccc" /></g><path
       id="path8862"
       style="fill:#e8e8e8;fill-opacity:1;fill-rule:evenodd;stroke:#848484;stroke-width:1.49675;stroke-linecap:round;stroke-linejoin:miter;stroke-miterlimit:4;stroke-dasharray:none;stroke-dashoffset:0;stroke-opacity:1"
       d="m 82.436354,49.490921 c -1.541692,0.206844 -2.636549,0.538914 -3.275766,0.990104 -0.92126,0.658065 -1.379838,1.448712 -1.379826,2.369927 -1.2e-5,0.770867 0.333192,1.508058 1.000637,2.222467 0.667419,0.714461 1.88765,1.378601 3.654955,1.980207 z m 5.445569,18.495972 v 8.468543 c 1.466451,-0.188 2.633222,-0.603658 3.507493,-1.242897 0.87422,-0.639227 1.306066,-1.500655 1.306094,-2.59112 -2.8e-5,-0.958839 -0.321567,-1.790144 -0.979571,-2.485791 -0.90247,-0.921233 -2.179558,-1.641095 -3.834016,-2.148735 z M 82.436354,36.967168 h 5.445569 v 6.993921 c 0.808419,0.244452 1.48875,0.49407 2.043404,0.747843 0.554606,0.25385 1.303459,0.670638 2.243532,1.253428 l 1.063834,-2.001271 h 3.07564 l 3.296832,12.776546 -5.182241,1.495687 C 93.069225,54.717573 90.89005,52.137804 87.881923,50.502091 v 8.099887 c 3.703761,1.052876 6.39724,2.12327 8.089355,3.223101 1.692052,1.099876 2.983067,2.458281 3.87614,4.065745 0.893042,1.607492 1.337682,3.273508 1.337722,5.003181 -4e-5,1.861299 -0.52827,3.651558 -1.590509,5.371836 -1.062285,1.720292 -2.629648,3.16228 -4.697722,4.318536 -2.068131,1.156255 -4.40168,1.823794 -7.014986,2.011806 v 6.825392 h -5.445569 v -7.299378 c -2.162122,-0.507629 -4.422621,-1.617545 -6.772727,-3.328434 l -1.348226,3.328434 h -3.075639 l -2.770183,-14.862081 5.392903,-1.295562 c 0.97764,2.143323 1.920392,3.824398 2.822847,5.055846 0.902435,1.231474 1.91597,2.299602 3.044041,3.202036 0.827228,0.676845 1.729319,1.188876 2.706984,1.527287 v -9.395447 c -4.042216,-1.35365 -6.817013,-2.533222 -8.321079,-3.539093 -1.504084,-1.00583 -2.684789,-2.284049 -3.549627,-3.84455 -0.864846,-1.560453 -1.306097,-3.141748 -1.306093,-4.739856 -3e-6,-1.823662 0.541026,-3.584922 1.622083,-5.27704 1.081049,-1.69205 2.579893,-3.037657 4.497598,-4.034144 1.917685,-0.996411 4.274563,-1.55137 7.057118,-1.664216 z" /><path
       id="path364"
       style="fill:#404040;fill-opacity:1;fill-rule:evenodd;stroke:#404040;stroke-width:1.05833329;stroke-linecap:square;stroke-linejoin:miter;stroke-dasharray:none;stroke-opacity:1"
       d="m 4.2333333,61.383333 -2.1166667,2.116666 2.1166667,2.116667 2.1166666,-2.116667 z m 160.8666667,0 -2.11667,2.116666 2.11667,2.116667 2.11666,-2.116667 z" /></g></svg>
